<?xml version="1.0" standalone="no"?>
<!DOCTYPE svg PUBLIC "-//W3C//DTD SVG 20010904//EN"
 "http://www.w3.org/TR/2001/REC-SVG-20010904/DTD/svg10.dtd">
<svg version="1.0" xmlns="http://www.w3.org/2000/svg"
 width="512.000000pt" height="512.000000pt" viewBox="0 0 512.000000 512.000000"
 preserveAspectRatio="xMidYMid meet">

<g transform="translate(0.000000,512.000000) scale(0.100000,-0.100000)"
fill="#000000" stroke="none">
<path d="M1380 5108 c-53 -15 -100 -56 -123 -107 -18 -40 -21 -72 -25 -255 -5
-241 3 -298 51 -353 84 -95 220 -95 304 0 47 54 56 116 51 357 -4 179 -7 211
-25 251 -24 53 -70 92 -128 108 -47 13 -58 13 -105 -1z"/>
<path d="M2130 5108 c-53 -15 -100 -56 -123 -107 -18 -40 -21 -72 -25 -251 -5
-241 4 -303 51 -357 113 -129 312 -75 347 94 9 39 11 124 8 263 -4 179 -7 211
-25 251 -24 53 -70 92 -128 108 -47 13 -58 13 -105 -1z"/>
<path d="M2880 5108 c-53 -15 -100 -56 -123 -107 -18 -40 -21 -72 -25 -251 -5
-241 4 -303 51 -357 113 -129 312 -75 347 94 9 39 11 124 8 263 -4 179 -7 211
-25 251 -24 53 -70 92 -128 108 -47 13 -58 13 -105 -1z"/>
<path d="M3630 5108 c-53 -15 -100 -56 -123 -107 -18 -40 -21 -72 -25 -251 -5
-241 4 -303 51 -357 113 -129 312 -75 347 94 9 39 11 124 8 263 -4 179 -7 211
-25 251 -24 53 -70 92 -128 108 -47 13 -58 13 -105 -1z"/>
<path d="M2626 2017 c-42 -89 -76 -171 -76 -183 0 -27 40 -64 70 -64 20 0 300
139 324 160 14 13 -22 104 -58 146 -34 40 -109 86 -157 98 -25 5 -29 0 -103
-157z"/>
</g>
</svg>
